<?xml version="1.0" encoding="utf-8"?>
<!-- Generator: Adobe Illustrator 27.0.0, SVG Export Plug-In . SVG Version: 6.00 Build 0)  -->
<svg version="1.1" id="Layer_1" xmlns="http://www.w3.org/2000/svg" xmlns:xlink="http://www.w3.org/1999/xlink" x="0px" y="0px"
	 viewBox="0 0 260 166" style="enable-background:new 0 0 260 166;" xml:space="preserve">
<g id="THnUux_00000168814855446255862340000008043341400136258487_">
	<g>
		<path d="M133.55,165.64c-31.59-0.27-58.46-5.22-83.71-17.52c-12.44-6.06-23.79-13.72-33.2-23.99c-8.34-9.1-14.46-19.4-16.68-31.71
			C-2.77,77.27,0.85,63.48,9.3,50.84c8-11.96,18.8-20.89,31.05-28.17c17.39-10.34,36.28-16.5,56.13-19.8
			c27.23-4.52,54.33-3.77,81.14,2.96c22.42,5.63,43.06,14.9,60.16,30.89c9.7,9.07,17.07,19.71,20.3,32.77
			c4.22,17.09,0.48,32.71-9.48,46.96c-9.52,13.64-22.48,23.22-37.07,30.76c-18.46,9.54-38.2,14.84-58.79,17.04
			C145.15,165.06,137.51,165.37,133.55,165.64z M215.85,80.36c12.43,0,24.63,0,37.48,0c-0.98-4.38-1.58-8.59-2.87-12.57
			c-4.18-12.9-12.66-22.72-23.07-31.04c-0.51-0.41-1.58-0.43-2.29-0.25c-6.57,1.68-13.12,3.44-19.68,5.17
			c-0.98,0.26-1.96,0.5-3.14,0.8C210.35,53.95,215.12,66.32,215.85,80.36z M202.3,123.17c5.76,1.46,11.16,2.86,16.57,4.2
			c2.7,0.67,5.69,2.27,8.05,1.63c2.52-0.69,4.55-3.43,6.64-5.44c8.74-8.4,15.4-18.1,18.15-30.11c0.6-2.63,0.87-5.35,1.3-8.08
			c-12.69,0-24.89,0-37.17,0C215.11,99.34,210.37,111.73,202.3,123.17z M56.44,42.65c-7.84-2.09-15.4-4.15-23-6.09
			c-0.65-0.17-1.66,0.23-2.21,0.71c-3.08,2.71-6.22,5.37-9.05,8.33C14.62,53.51,9.11,62.62,6.87,73.48
			C6.41,75.71,6.23,78,5.91,80.38c12.56,0,24.7,0,37.07,0C43.69,66.43,48.46,53.99,56.44,42.65z M56.47,123.06
			c-8.08-11.44-12.77-23.91-13.49-37.71c-12.48,0-24.67,0-37.3,0c0.72,3.62,1.16,7.07,2.1,10.37c3.56,12.57,11.43,22.2,20.98,30.75
			c2.54,2.28,4.7,2.87,8.04,1.8C43.15,126.24,49.71,124.82,56.47,123.06z M210.85,80.4c0.04-0.52,0.1-0.8,0.09-1.07
			c-0.82-12.96-5.55-24.44-13.22-34.78c-0.42-0.57-1.69-0.86-2.48-0.75c-4.97,0.71-9.9,1.63-14.87,2.37
			c-4.24,0.64-8.49,1.14-12.93,1.72c4.02,10.6,6.15,21.36,6.51,32.5C186.37,80.4,198.51,80.4,210.85,80.4z M91.35,48.05
			c-0.34-0.13-0.53-0.25-0.73-0.28c-9.23-1.38-18.45-2.77-27.69-4.06c-0.61-0.09-1.57,0.49-1.99,1.05
			c-6.5,8.79-10.82,18.52-12.5,29.36c-0.32,2.04-0.41,4.12-0.6,6.17c12.59,0,24.78,0,37.07,0C85.29,69.08,87.44,58.38,91.35,48.05z
			 M167.59,117.57c0.35,0.21,0.46,0.33,0.58,0.35c9.24,1.37,18.48,2.76,27.73,4.05c0.62,0.09,1.59-0.43,1.99-0.97
			c5.8-7.84,9.92-16.48,11.89-26.06c0.65-3.13,0.91-6.35,1.36-9.62c-12.64,0-24.8,0-37.21,0
			C173.66,96.48,171.42,107.23,167.59,117.57z M47.92,85.31c0,0.65-0.03,1.13,0,1.61c0.97,12.78,5.67,24.13,13.24,34.35
			c0.36,0.48,1.45,0.71,2.14,0.61c4.68-0.69,9.34-1.55,14.03-2.25c4.59-0.68,9.19-1.23,14.04-1.87c-4.04-10.53-6.08-21.3-6.5-32.45
			C72.51,85.31,60.36,85.31,47.92,85.31z M169.11,80.35c-0.32-10.91-2.39-21.17-6.31-31.05c-0.18-0.46-1.18-0.89-1.78-0.86
			c-8.97,0.37-17.94,0.89-26.91,1.2c-1.85,0.07-2.42,0.56-2.4,2.41c0.09,8.77,0.09,17.54,0.03,26.32c-0.01,1.65,0.44,2.17,2.14,2.16
			c11.04-0.07,22.07-0.04,33.11-0.04C167.61,80.48,168.23,80.4,169.11,80.35z M89.78,80.34c12.55,0,24.82,0,37.12,0
			c0-10.25,0-20.33,0-30.44c-0.42-0.08-0.69-0.16-0.96-0.17c-9.46-0.46-18.93-0.93-28.39-1.31c-0.54-0.02-1.4,0.62-1.6,1.15
			c-1.02,2.71-1.97,5.45-2.77,8.23C91.08,65.1,89.9,72.54,89.78,80.34z M169.11,85.36c-12.6,0-24.87,0-37.18,0
			c0,10.25,0,20.33,0,30.28c9.91,0.54,19.65,1.09,29.39,1.54c0.56,0.03,1.5-0.73,1.7-1.32c1.26-3.67,2.51-7.36,3.48-11.12
			C168.12,98.44,168.98,92.01,169.11,85.36z M126.87,115.75c0-10.23,0-20.31,0-30.38c-12.44,0-24.72,0-37.1,0
			c0.22,10.77,2.35,20.97,6.18,30.81c0.19,0.5,1.15,1,1.73,0.99c2.4-0.04,4.8-0.33,7.21-0.45
			C112.17,116.38,119.45,116.08,126.87,115.75z M118.53,158.01c0.2-0.22,0.4-0.44,0.6-0.66c-0.39-0.19-0.84-0.3-1.15-0.58
			c-10.14-9.38-18.21-20.28-24.01-32.83c-0.57-1.23-1.28-1.47-2.45-1.31c-5.95,0.8-11.92,1.54-17.87,2.36
			c-2.7,0.37-5.38,0.89-8.5,1.42C79.94,142.76,98.03,152.43,118.53,158.01z M139.98,158.1c20.81-5.66,38.92-15.32,53.46-31.44
			c-0.53-0.21-0.77-0.37-1.04-0.41c-8.47-1.21-16.95-2.39-25.42-3.64c-1.45-0.21-1.79,0.67-2.25,1.67
			c-4.84,10.35-11.27,19.61-19.16,27.88C143.77,154.03,142,155.94,139.98,158.1z M119.02,7.66c-21.09,5.76-39.13,15.37-53.75,31.57
			c1.33,0.25,2.22,0.46,3.12,0.58c7.64,1.06,15.28,2.06,22.91,3.2c1.53,0.23,2.24-0.15,2.89-1.56c4.9-10.64,11.55-20.1,19.68-28.52
			C115.44,11.31,117.02,9.7,119.02,7.66z M140.26,8.2c0.18,0.21,0.34,0.43,0.53,0.62c10.16,9.48,18.29,20.44,24.09,33.09
			c0.53,1.15,1.21,1.29,2.33,1.13c4.21-0.57,8.44-0.98,12.64-1.58c4.44-0.63,8.86-1.4,13.75-2.19
			C178.87,23.03,160.87,13.44,140.26,8.2z M131.92,7.52c0,12.74,0,25,0,37.6c9.54-0.43,18.91-0.86,28.66-1.3
			C153.72,29.29,144.28,17.54,131.92,7.52z M131.9,158.13c12.36-10,21.81-21.73,28.71-36.32c-9.86-0.42-19.2-0.82-28.71-1.23
			C131.9,133.22,131.9,145.42,131.9,158.13z M126.97,7.5c-12.43,10.1-21.89,21.83-28.7,36.34c9.79,0.43,19.2,0.84,28.7,1.26
			C126.97,32.4,126.97,20.25,126.97,7.5z M126.92,158.11c0-12.68,0-24.88,0-37.53c-9.53,0.41-18.93,0.82-28.68,1.24
			C105.13,136.39,114.55,148.12,126.92,158.11z M160.14,9.47c0.39,0.23,0.77,0.49,1.18,0.67c14.08,6.44,26.54,15.08,36.71,26.88
			c0.49,0.56,1.73,0.91,2.48,0.74c6.48-1.49,12.92-3.12,19.37-4.73c0.48-0.12,0.93-0.4,1.67-0.74
			C202.73,19.6,182.12,12.74,160.14,9.47z M221.28,133.54c-0.02-0.24-0.04-0.49-0.06-0.73c-7-1.68-14-3.41-21.02-4.99
			c-0.66-0.15-1.77,0.39-2.26,0.96c-7.81,9.06-17.02,16.37-27.43,22.18c-3.16,1.76-6.41,3.37-9.62,5.04
			C182.64,152.75,203,145.89,221.28,133.54z M37.8,32.32c0.02,0.24,0.03,0.47,0.05,0.71c6.94,1.65,13.87,3.34,20.83,4.9
			c0.61,0.14,1.64-0.34,2.08-0.86c9.91-11.51,22.02-20.05,35.7-26.47c0.45-0.21,0.88-0.49,1.31-0.74
			C76.19,13.25,55.97,20.1,37.8,32.32z M97.66,155.81c-0.22-0.15-0.42-0.34-0.66-0.45c-14.04-6.39-26.3-15.17-36.42-26.88
			c-0.5-0.58-1.9-0.79-2.76-0.6c-5.31,1.17-10.6,2.48-15.88,3.78c-1.4,0.34-2.76,0.82-4.6,1.37
			C55.93,145.51,76.09,152.37,97.66,155.81z"/>
	</g>
</g>
</svg>
